# xmcd
#
# Track frame offsets: 
#        150
#        15871
#        39184
#        58197
#        78422
#        99594
#        119776
#        144347
#        166091
#        185464
#        208993
#        227490
#        252890
#        268730
#
# Disc length: 3748 seconds
#
# Revision: 0
# Processed by: cddbd v1.4PL0 Copyright (c) Steve Scherf et al.
# Submitted via: ExactAudioCopy v0.90b4
#
DISCID=b80ea20e
DTITLE=Chick Willis - American Roots: Blues
DYEAR=2002
DGENRE=Blues
TTITLE0=Love Crazy
TTITLE1=Use What You Got
TTITLE2=Footprints in My Bed
TTITLE3=Big Red Caboose
TTITLE4=Voodoo Woman
TTITLE5=Bow-Legged Woman
TTITLE6=I Ain't Jivin' Baby
TTITLE7=Millie (The Fine Filly)
TTITLE8=Finders Keepers
TTITLE9=Heavens to Betsy
TTITLE10=One Slick Woman
TTITLE11=I Got a Big Fat Woman
TTITLE12=She Like to Live High on the Hog
TTITLE13=You Lost What You Had
EXTD=
EXTT0=
EXTT1=
EXTT2=
EXTT3=
EXTT4=
EXTT5=
EXTT6=
EXTT7=
EXTT8=
EXTT9=
EXTT10=
EXTT11=
EXTT12=
EXTT13=
PLAYORDER=
